<?xml version="1.0" standalone="no"?>
<!DOCTYPE svg PUBLIC "-//W3C//DTD SVG 20010904//EN"
 "http://www.w3.org/TR/2001/REC-SVG-20010904/DTD/svg10.dtd">
<svg version="1.0" xmlns="http://www.w3.org/2000/svg"
 width="260.000000pt" height="260.000000pt" viewBox="0 0 260.000000 260.000000"
 preserveAspectRatio="xMidYMid meet">
<metadata>
Created by potrace 1.11, written by Peter Selinger 2001-2013
</metadata>
<g transform="translate(0.000000,260.000000) scale(0.100000,-0.100000)"
fill="#000000" stroke="none">
<path d="M310 2380 c-6 -11 -10 -55 -9 -98 1 -42 -1 -99 -5 -127 -6 -45 10
-154 28 -183 3 -5 1 -24 -4 -42 -11 -39 -21 -99 -24 -156 -2 -23 -6 -46 -10
-53 -4 -6 -3 -11 2 -11 5 0 8 -10 8 -22 -1 -13 2 -34 6 -47 6 -15 4 -29 -4
-39 -11 -13 -11 -14 1 -7 11 6 13 4 8 -9 -5 -11 -3 -15 5 -10 7 5 9 0 6 -14
-4 -12 -3 -20 1 -17 9 5 51 -92 51 -118 0 -11 4 -15 12 -11 8 5 9 2 5 -9 -3
-10 -2 -17 3 -17 11 0 60 -104 60 -126 0 -8 5 -14 11 -14 5 0 8 -4 4 -9 -3 -5
1 -15 8 -23 7 -7 28 -44 47 -83 19 -38 56 -91 83 -118 26 -27 47 -59 48 -71 0
-11 2 -28 4 -36 3 -16 20 -133 30 -208 9 -64 9 -222 0 -262 -15 -66 -56 -145
-95 -181 -22 -20 -40 -44 -40 -54 0 -15 10 -16 87 -13 l88 3 16 75 c79 364
103 469 109 465 4 -2 5 -41 4 -87 -11 -291 -18 -352 -49 -388 -26 -29 -28 -67
-6 -89 16 -16 34 -21 75 -21 85 0 95 13 101 140 2 58 7 119 9 135 3 17 13 88
22 159 8 71 17 136 19 145 1 9 6 45 11 81 4 36 9 68 10 73 1 4 2 20 3 36 l1
30 85 -2 c47 -1 85 0 85 3 0 3 21 5 48 5 26 0 51 2 57 4 5 3 21 6 35 7 14 2
43 6 66 9 l41 5 27 -54 c36 -72 97 -130 201 -193 58 -35 98 -68 123 -100 20
-26 39 -50 42 -53 13 -10 22 -65 25 -157 4 -88 3 -94 -20 -117 -13 -14 -38
-32 -54 -42 -31 -18 -51 -51 -44 -71 5 -14 163 -19 163 -5 0 4 20 82 44 174
l43 168 46 -50 c50 -54 129 -114 164 -124 26 -8 35 5 57 89 17 69 27 133 31
211 1 30 5 57 8 61 4 3 2 14 -4 25 -5 10 -12 49 -14 86 -2 37 -5 74 -8 82 -2
8 -14 78 -26 155 -41 253 -97 394 -198 493 -36 35 -67 61 -70 59 -3 -3 -26 11
-51 30 -63 48 -156 90 -243 109 -99 22 -196 34 -306 39 -331 15 -362 19 -435
56 -27 14 -44 32 -55 57 -8 20 -26 60 -40 89 -18 39 -22 57 -14 71 17 32 42
155 42 210 1 37 -4 59 -15 70 -15 15 -19 15 -50 -2 -19 -10 -67 -51 -108 -91
-69 -69 -77 -74 -120 -76 l-47 -3 -107 112 c-59 62 -113 112 -120 112 -8 0
-18 -9 -24 -20z"/>
</g>
</svg>
